<!DOCTYPE svg PUBLIC "-//W3C//DTD SVG 1.1//EN" "http://www.w3.org/Graphics/SVG/1.1/DTD/svg11.dtd">

<!-- Uploaded to: SVG Repo, www.svgrepo.com, Transformed by: SVG Repo Mixer Tools -->
<svg width="150px" height="150px" viewBox="0 0 24 24" fill="none" xmlns="http://www.w3.org/2000/svg">

<g id="SVGRepo_bgCarrier" stroke-width="0"/>

<g id="SVGRepo_tracerCarrier" stroke-linecap="round" stroke-linejoin="round"/>

<g id="SVGRepo_iconCarrier"> <path opacity="0.1" d="M21 12C21 16.9706 16.9706 21 12 21C7.02944 21 3 16.9706 3 12C3 7.02944 7.02944 3 12 3C16.9706 3 21 7.02944 21 12Z" fill="#ababab"/> <path d="M21 12C21 16.9706 16.9706 21 12 21C7.02944 21 3 16.9706 3 12C3 7.02944 7.02944 3 12 3C16.9706 3 21 7.02944 21 12Z" stroke="#ababab" stroke-width="2"/> <path d="M8 16C8.91221 14.7856 10.3645 14 12.0004 14C13.6362 14 15.0885 14.7856 16.0007 16" stroke="#ababab" stroke-width="2" stroke-linecap="round"/> <path d="M9 10.0112V10" stroke="#ababab" stroke-width="2" stroke-linecap="round"/> <path d="M15 10.0112V10" stroke="#ababab" stroke-width="2" stroke-linecap="round"/> </g>

</svg>